#!OML:ASF H:\Terrain\Patient Classification 1\Takeo\Monday\TakeoMonday.ASF
:FULLY-SPECIFIED
:DEGREES
228
root 11.0509 15.894 0.387447 19.1304 2.19748 0.712673
lowerback 30.7868 -1.42022 -1.34164
upperback 4.87324 -2.24027 -0.205184
thorax -11.3867 -0.961267 1.42022
lowerneck -16.4326 -0.405047 -0.584362
upperneck -23.8888 -0.655999 -0.731191
head -4.71783 -0.258757 -0.139649
rclavicle 5.1684e-015 3.97569e-016
rhumerus -34.2186 7.56909 -89.5459
rradius 48.0454
rwrist -26.8664
rhand -34.2929 26.9811
rfingers 7.12502
rthumb -7.46224 -2.86728
lclavicle 5.1684e-015 3.97569e-016
lhumerus -25.8165 -7.97243 85.6521
lradius 41.3229
lwrist 16.3682
lhand -28.4936 16.89
lfingers 7.12502
lthumb -1.86262 46.8616
rfemur -58.2989 7.3248 16.4602
rtibia 73.7609
rfoot -21.3721 -11.4442
rtoes -6.44808
lfemur -55.859 -2.95571 -24.0044
ltibia 70.188
lfoot -21.9167 11.6236
ltoes -3.75674
229
root 11.0518 16.0191 0.395413 18.9709 2.04735 0.564642
lowerback 30.7323 -1.36421 -1.3353
upperback 4.91001 -2.16134 -0.160718
thorax -11.3173 -0.926721 1.43445
lowerneck -16.8381 -0.53829 -0.929493
upperneck -23.581 -0.7396 -0.421891
head -4.5616 -0.286864 0.0151273
rclavicle 5.1684e-015 0
rhumerus -34.3601 7.09302 -89.1664
rradius 47.5056
rwrist -26.1342
rhand -33.9482 26.099
rfingers 7.12502
rthumb -7.1296 -3.76088
lclavicle 5.1684e-015 0
lhumerus -26.7316 -7.22846 85.6345
lradius 41.3479
lwrist 15.8571
lhand -28.5725 16.6504
lfingers 7.12502
lthumb -1.93886 46.6213
rfemur -57.1484 7.41164 16.5601
rtibia 71.9362
rfoot -20.7999 -11.1156
rtoes -7.13497
lfemur -54.889 -2.64583 -23.8687
ltibia 68.7367
lfoot -21.3674 11.3629
ltoes -3.41643
230
root 11.0564 16.1492 0.406966 18.9558 1.82089 0.589123
lowerback 30.592 -1.29194 -1.36937
upperback 4.84018 -2.09371 -0.253616
thorax -11.3334 -0.897007 1.31911
lowerneck -17.0048 -0.584856 -1.01895
upperneck -23.4155 -0.752425 -0.201559
head -4.48453 -0.294955 0.0994734
rclavicle 2.46493e-014 -6.75868e-015
rhumerus -34.8141 6.6555 -88.9434
rradius 47.2389
rwrist -26.3149
rhand -33.93 26.0026
rfingers 7.12502
rthumb -7.11203 -3.85793
lclavicle 2.46493e-014 -6.75868e-015
lhumerus -27.6141 -6.97483 85.5632
lradius 41.1766
lwrist 15.7413
lhand -28.5893 16.6024
lfingers 7.12502
lthumb -1.95508 46.5732
rfemur -56.111 7.46713 16.3962
rtibia 70.1316
rfoot -20.469 -10.6555
rtoes -6.75326
lfemur -54.0459 -2.41316 -23.9075
ltibia 67.2214
lfoot -20.6736 11.0202
ltoes -2.22473
231
root 11.0564 16.2786 0.42412 19.1022 1.77016 0.467812
lowerback 30.1613 -1.26945 -1.26387
upperback 4.73969 -2.0313 -0.267846
thorax -11.241 -0.875494 1.2082
lowerneck -17.9391 -0.562522 -0.882998
upperneck -22.123 -0.716531 -0.195026
head -4.47352 -0.29467 0.0736457
rclavicle 4.37326e-014 -7.55382e-015
rhumerus -35.3873 6.14735 -88.6822
rradius 47.0503
rwrist -26.5774
rhand -34.1158 26.2643
rfingers 7.12502
rthumb -7.29133 -3.59009
lclavicle 4.37326e-014 -7.55382e-015
lhumerus -28.4334 -6.75218 85.5202
lradius 40.9551
lwrist 15.7677
lhand -28.7828 16.6421
lfingers 7.12502
lthumb -2.14192 46.6111
rfemur -55.2537 7.4557 16.4258
rtibia 68.3481
rfoot -19.9821 -10.2619
rtoes -4.87817
lfemur -53.3619 -2.31878 -23.7179
ltibia 65.6446
lfoot -19.6787 10.8583
ltoes -2.20701
232
root 11.0553 16.3971 0.44165 19.2089 1.69626 0.501795
lowerback 29.721 -1.22744 -1.43016
upperback 4.63872 -2.02329 -0.242291
thorax -11.1301 -0.867317 1.32076
lowerneck -18.2649 -0.472712 -0.848725
upperneck -21.4728 -0.589616 -0.200829
head -4.16686 -0.236554 0.0658623
rclavicle 8.74653e-015 -1.59028e-015
rhumerus -35.7409 5.72369 -88.2769
rradius 46.6917
rwrist -26.7916
rhand -34.0501 26.3435
rfingers 7.12502
rthumb -7.22796 -3.51301
lclavicle 8.74653e-015 -1.59028e-015
lhumerus -29.154 -6.23562 85.4844
lradius 40.6357
lwrist 15.8274
lhand -29.0625 16.8979
lfingers 7.12502
lthumb -2.4121 46.864
rfemur -54.4241 7.40568 16.3064
rtibia 66.5684
rfoot -19.1578 -9.862
rtoes -3.67744
lfemur -52.5538 -2.15447 -23.7599
ltibia 64.0102
lfoot -18.7778 10.7093
ltoes -2.04906
233
root 11.0519 16.5221 0.456655 19.0547 1.6312 0.543782
lowerback 29.5805 -1.23225 -1.63649
upperback 4.55086 -2.09638 -0.266582
thorax -11.1523 -0.892824 1.43787
lowerneck -17.9474 -0.379228 -0.738864
upperneck -21.3955 -0.476521 -0.150761
head -4.1864 -0.190191 0.0669607
rclavicle -1.31198e-014 -1.98785e-015
rhumerus -36.0721 5.58657 -88.0675
rradius 46.2077
rwrist -27.2818
rhand -33.4435 25.8315
rfingers 7.12502
rthumb -6.64241 -4.04437
lclavicle -1.31198e-014 -1.98785e-015
lhumerus -29.8985 -5.58312 85.2183
lradius 40.3397
lwrist 15.7945
lhand -28.7573 17.8097
lfingers 7.12502
lthumb -2.11731 47.779
rfemur -53.2541 7.32661 16.2928
rtibia 64.7192
rfoot -18.1569 -9.66543
rtoes -4.08338
lfemur -51.4893 -1.88084 -23.85
ltibia 62.3472
lfoot -17.9017 10.5878
ltoes -1.02958
234
root 11.0444 16.6541 0.468618 18.9085 1.6892 0.284536
lowerback 29.4014 -1.25722 -1.44814
upperback 4.53044 -2.06653 -0.250674
thorax -11.0927 -0.887839 1.33148
lowerneck -17.9465 -0.329749 -0.367934
upperneck -21.3556 -0.493299 -0.362422
head -4.17226 -0.221898 -0.0686658
rclavicle -8.34896e-015 3.18055e-015
rhumerus -36.3167 5.06612 -87.8111
rradius 45.6495
rwrist -27.3493
rhand -32.9856 25.3907
rfingers 7.12502
rthumb -6.20033 -4.49853
lclavicle -8.34896e-015 3.18055e-015
lhumerus -30.4453 -4.85217 84.8663
lradius 40.0327
lwrist 15.5857
lhand -28.267 17.9369
lfingers 7.12502
lthumb -1.64382 47.9103
rfemur -52.0373 7.2802 16.6686
rtibia 62.7722
rfoot -17.0975 -9.71489
rtoes -4.40537
lfemur -50.5503 -1.55645 -23.5878
ltibia 60.7035
lfoot -16.8179 10.5576
ltoes -0.539363
